<?xml version="1.0" encoding="utf-8"?>
<!-- Generator: Adobe Illustrator 25.0.1, SVG Export Plug-In . SVG Version: 6.00 Build 0)  -->
<svg version="1.1" id="Layer_1" xmlns="http://www.w3.org/2000/svg" xmlns:xlink="http://www.w3.org/1999/xlink" x="0px" y="0px"
	 viewBox="0 0 46 40" style="enable-background:new 0 0 46 40;" xml:space="preserve">
<g>
	<circle fill="#E9F0F6" cx="26.5" cy="20.5" r="19.5"/>
	<path d="M21.9,1.2L4.6,0C4,0,3.5,0.4,3.5,1L3.3,3H1C0.5,3,0,3.4,0,4v24.9c0,0.6,0.5,1,1,1h13.3c0.1,0,0.2,0,0.3-0.1l2-2
		c0,0,0,0,0.1,0l3.4,0.2c0.5,0,1.1-0.4,1.1-1l1.7-24.9C22.9,1.7,22.4,1.2,21.9,1.2z M14.7,28.5v-3.1c0-0.1,0.1-0.1,0.1-0.1h3
		L14.7,28.5z M20.3,27.1c0,0.1-0.1,0.1-0.2,0.1L17.4,27l1.9-1.9c0.1-0.1,0.1-0.2,0.1-0.3V4c0-0.6-0.5-1-1-1h-4.6
		c-0.6,0-0.6,0.9,0,0.9h4.6c0.1,0,0.1,0.1,0.1,0.1v20.4h-3.7c-0.6,0-1,0.5-1,1v3.7H1c-0.1,0-0.1-0.1-0.1-0.1V4
		c0-0.1,0.1-0.1,0.1-0.1h10.4C12,3.9,12,3,11.5,3H4.2l0.1-2c0-0.1,0.1-0.1,0.2-0.1L21.8,2c0.1,0,0.1,0.1,0.1,0.2L20.3,27.1z"/>
	<path d="M15.7,13.9h-12c-0.2,0-0.4,0.2-0.4,0.4c0,0.2,0.2,0.4,0.4,0.4h12c0.2,0,0.4-0.2,0.4-0.4C16.1,14.1,15.9,13.9,15.7,13.9z"/>
	<path d="M15.7,16.9h-12c-0.2,0-0.4,0.2-0.4,0.4c0,0.2,0.2,0.4,0.4,0.4h12c0.2,0,0.4-0.2,0.4-0.4C16.1,17.1,15.9,16.9,15.7,16.9z"/>
	<path d="M3.3,11.2c0,0.2,0.2,0.4,0.4,0.4h12c0.2,0,0.4-0.2,0.4-0.4c0-0.2-0.2-0.4-0.4-0.4h-12C3.5,10.8,3.3,11,3.3,11.2z"/>
	<path d="M5.4,8.2c0,0.2,0.2,0.4,0.4,0.4h7.8c0.2,0,0.4-0.2,0.4-0.4c0-0.2-0.2-0.4-0.4-0.4H5.8C5.6,7.7,5.4,7.9,5.4,8.2z"/>
	<path d="M11.4,25.7c-0.8,0-1.6,0-2.4,0c-0.3,0-0.5,0-0.8,0c-0.5,0-0.8-0.1-0.9-0.6c-0.1-0.4-0.7-0.4-0.8,0c-0.3,1-0.8,0.6-1.1-0.1
		c-0.3-0.6-0.4-1.4-0.5-2c-0.1-0.5-0.8-0.4-0.9,0.1c0,0.6-0.1,1.2-0.2,1.9c-0.2,0.6-0.4,1.2-0.7,1.8C2.9,27.3,3.8,27.5,4,27
		c0.2-0.5,0.4-1.1,0.6-1.6c0.3,0.7,0.9,1.5,1.8,1.1c0.2-0.1,0.3-0.2,0.5-0.4c0.5,0.5,1.1,0.5,1.8,0.5c0.9,0,1.8,0,2.7,0
		C12,26.6,12,25.7,11.4,25.7z"/>
	<path d="M29.6,14.4c-0.2-0.2-0.5-0.3-0.9-0.4l-0.3,0v-0.6c0-0.4-0.2-0.8-0.6-1v-0.9c0-1.8-2.8-1.8-2.8,0v0.9
		c-0.3,0.2-0.6,0.6-0.6,1v0.6c-1.5,0.1-1.5,2.3,0,2.4c0,2,0,3.9,0,5.9c0,0.6,0.9,0.6,0.9,0c0-2,0-3.9,0-5.9l2.2,0c0,0,0,6.5,0,9.4
		c0,1.4-2.2,1.4-2.2,0l0-0.8c0-0.6-0.8-0.6-0.9-0.1v0.8c0,0.6,0.2,1.2,0.6,1.6c0,0.9,0.4,1.8,1.1,2.5c0.2,0.2,0.4,0.1,0.6,0
		c0.7-0.7,1-1.5,1.1-2.5c0.3-0.3,0.6-0.6,0.6-1.6l0-4c0.8,0.2,1.6-0.4,1.6-1.2v-5.3C30,15,29.9,14.6,29.6,14.4z M25.4,14.1v-0.6
		c0-0.1,0.1-0.2,0.2-0.3l1.8,0c0,0,0.1,0,0.1,0.1c0.1,0.1,0.1,0.1,0.1,0.2v0.6L25.4,14.1z M26.5,11c0.3,0,0.5,0.3,0.5,0.5v0.7
		l-1.1,0v-0.7C25.9,11.3,26.2,11,26.5,11z M26.5,28.8c-0.2-0.3-0.4-0.6-0.4-1c0.1,0,0.3,0,0.4,0c0.2,0,0.3,0,0.5-0.1
		C26.8,28.2,26.7,28.6,26.5,28.8z M29.1,20.6c0,0.4-0.7,0.4-0.7,0c0,0,0-4.2,0-4.5c0-0.2-0.2-0.4-0.4-0.4l-3.4,0
		c-0.4,0-0.4-0.7,0-0.7l4.2,0c0.2,0,0.3,0.1,0.3,0.3L29.1,20.6L29.1,20.6z"/>
</g>
</svg>
