<?xml version="1.0" encoding="utf-8"?>
<svg version="1.1" id="Layer_1" xmlns="http://www.w3.org/2000/svg" xmlns:xlink="http://www.w3.org/1999/xlink" x="0px" y="0px"
	 viewBox="0 0 46 40" style="enable-background:new 0 0 46 40;" xml:space="preserve">
<g>
	<circle fill="#E9F0F6" cx="26.5" cy="20.5" r="19.5"/>
	<path d="M3.7,28h20.5c0.8,0,1.4-0.6,1.4-1.4V2.8c0-0.8-0.6-1.4-1.4-1.4h-5.6c0-0.8-0.6-1.4-1.4-1.4h-6.5C9.9,0,9.3,0.6,9.3,1.4H3.7
		C2.9,1.4,2.3,2,2.3,2.8v23.8C2.3,27.4,2.9,28,3.7,28z M10.3,1.4c0-0.3,0.2-0.5,0.5-0.5h6.5c0.3,0,0.5,0.2,0.5,0.5v2.3
		c0,0.3-0.2,0.5-0.5,0.5h-6.5c-0.3,0-0.5-0.2-0.5-0.5V1.4z M3.3,2.8c0-0.3,0.2-0.5,0.5-0.5h5.6v1.4c0,0.8,0.6,1.4,1.4,1.4h6.5
		c0.6,0,1.1-0.4,1.3-0.9h4.3v17.7h-3.3v3.3H5.1v-21h3.3V3.3H4.2v22.9h16.1l3.5-3.5V3.3h-5.1V2.3h5.6c0.3,0,0.5,0.2,0.5,0.5v23.8
		c0,0.3-0.2,0.5-0.5,0.5H3.7c-0.3,0-0.5-0.2-0.5-0.5V2.8z M22.2,22.9l-1.7,1.7v-1.7H22.2z"/>
	<path d="M12.1,2.3h3.7v0.9h-3.7V2.3z"/>
	<path d="M6.5,15.4h14.9V7.9H6.5V15.4z M7.5,8.9h13.1v5.6H7.5V8.9z"/>
	<path d="M10.7,6.1h6.5V7h-6.5V6.1z"/>
	<path d="M6.5,16.3h3.3v0.9H6.5V16.3z"/>
	<path d="M10.7,16.3h10.7v0.9H10.7V16.3z"/>
	<path d="M6.5,18.2h6.1v0.9H6.5V18.2z"/>
	<path d="M13.5,18.2h7.9v0.9h-7.9V18.2z"/>
	<path d="M6.5,20.1h8.9V21H6.5V20.1z"/>
	<path d="M16.3,20.1h5.1V21h-5.1V20.1z"/>
	<path d="M6.5,21.9h11.7v0.9H6.5V21.9z"/>
</g>
</svg>
