<svg xmlns="http://www.w3.org/2000/svg" width="66" height="62"><path scale="0.3" data-name="document issued" d="M54.425 60.422a5.17 5.17 0 01-3.805 1.55H15.377a5.164 5.164 0 01-3.806-1.55A5.057 5.057 0 0110 56.655V14.016a5.059 5.059 0 011.566-3.767A5.162 5.162 0 0115.377 8.7h10.291v-.5a6.879 6.879 0 012.178-5.1 7.233 7.233 0 0110.3 0 6.885 6.885 0 012.178 5.1v.5h10.295a5.169 5.169 0 013.805 1.55 5.065 5.065 0 011.566 3.768v42.637a5.062 5.062 0 01-1.565 3.767zM35.432 5.79a3.481 3.481 0 00-4.869 0 3.28 3.28 0 00-1 2.411 3.274 3.274 0 001 2.41 3.482 3.482 0 004.871 0 3.279 3.279 0 001-2.41 3.288 3.288 0 00-1.002-2.411zm15.689 8.953a1.141 1.141 0 00-1.237-1.223h-5.641v4.857a.808.808 0 01-.966.957H22.719a.808.808 0 01-.967-.957v-4.858h-5.641a1.141 1.141 0 00-1.236 1.223v41.186a1.141 1.141 0 001.236 1.223h33.773a1.142 1.142 0 001.237-1.223V14.743zM33.506 43.637l-1.953 1.949a1.389 1.389 0 01-1.953 0l-1.953-1.949-5.2-5.189a1.382 1.382 0 010-1.949l1.953-1.95a1.389 1.389 0 011.953 0l4.223 4.228L40 29.361a1.389 1.389 0 011.953 0L43.9 31.31a1.382 1.382 0 010 1.949z" fill="#3e9b83" fill-rule="evenodd"/></svg>