<?xml version="1.0" encoding="utf-8"?>
<!-- Generator: Adobe Illustrator 25.0.1, SVG Export Plug-In . SVG Version: 6.00 Build 0)  -->
<svg version="1.1" id="Layer_1" xmlns="http://www.w3.org/2000/svg" xmlns:xlink="http://www.w3.org/1999/xlink" x="0px" y="0px"
	 viewBox="0 0 46 40" style="enable-background:new 0 0 46 40;" xml:space="preserve">
<style type="text/css">
	.st0{clip-path:url(#SVGID_2_);}
</style>
<g>
	<g>
		<defs>
			<rect id="SVGID_1_" width="46" height="40"/>
		</defs>
		<clipPath id="SVGID_2_">
			<use xlink:href="#SVGID_1_"  style="overflow:visible;"/>
		</clipPath>
		<g class="st0">
			<circle fill="#E9F0F6" cx="26.6" cy="20.5" r="19.5"/>
			<path d="M22.1,0H4.3C3,0,2,1,2,2.3v23.3C2,27,3,28,4.3,28h17.7c1.3,0,2.3-1,2.3-2.3V2.3C24.4,1,23.4,0,22.1,0z M8.5,0.9h9.3v0.9
				H8.5V0.9z M21.6,2.8v4.7H4.8V2.8H21.6z M23.5,25.7c0,0.8-0.6,1.4-1.4,1.4H4.3c-0.8,0-1.4-0.6-1.4-1.4V2.3c0-0.8,0.6-1.4,1.4-1.4
				h3.3v0.9H4.3c-0.3,0-0.5,0.2-0.5,0.5v5.6c0,0.3,0.2,0.5,0.5,0.5h17.7c0.3,0,0.5-0.2,0.5-0.5V2.3c0-0.3-0.2-0.5-0.5-0.5h-3.3V0.9
				h3.3c0.8,0,1.4,0.6,1.4,1.4V25.7z"/>
			<path d="M13.2,9.3c-1.3,0-2.3,1-2.3,2.3c0,1.3,1,2.3,2.3,2.3c1.3,0,2.3-1,2.3-2.3C15.5,10.4,14.5,9.3,13.2,9.3z M13.2,13.1
				c-0.8,0-1.4-0.6-1.4-1.4c0-0.8,0.6-1.4,1.4-1.4s1.4,0.6,1.4,1.4C14.6,12.4,14,13.1,13.2,13.1z"/>
			<path d="M19.3,9.3c-1.3,0-2.3,1-2.3,2.3c0,1.3,1,2.3,2.3,2.3c1.3,0,2.3-1,2.3-2.3C21.6,10.4,20.6,9.3,19.3,9.3z M19.3,13.1
				c-0.8,0-1.4-0.6-1.4-1.4c0-0.8,0.6-1.4,1.4-1.4c0.8,0,1.4,0.6,1.4,1.4C20.7,12.4,20,13.1,19.3,13.1z"/>
			<path d="M7.1,9.3c-1.3,0-2.3,1-2.3,2.3c0,1.3,1,2.3,2.3,2.3c1.3,0,2.3-1,2.3-2.3C9.5,10.4,8.4,9.3,7.1,9.3z M7.1,13.1
				c-0.8,0-1.4-0.6-1.4-1.4c0-0.8,0.6-1.4,1.4-1.4s1.4,0.6,1.4,1.4C8.5,12.4,7.9,13.1,7.1,13.1z"/>
			<path d="M13.2,14.9c-1.3,0-2.3,1-2.3,2.3c0,1.3,1,2.3,2.3,2.3c1.3,0,2.3-1,2.3-2.3C15.5,16,14.5,14.9,13.2,14.9z M13.2,18.7
				c-0.8,0-1.4-0.6-1.4-1.4c0-0.8,0.6-1.4,1.4-1.4s1.4,0.6,1.4,1.4C14.6,18,14,18.7,13.2,18.7z"/>
			<path d="M19.3,14.9c-1.3,0-2.3,1-2.3,2.3c0,1.3,1,2.3,2.3,2.3c1.3,0,2.3-1,2.3-2.3C21.6,16,20.6,14.9,19.3,14.9z M19.3,18.7
				c-0.8,0-1.4-0.6-1.4-1.4c0-0.8,0.6-1.4,1.4-1.4c0.8,0,1.4,0.6,1.4,1.4C20.7,18,20,18.7,19.3,18.7z"/>
			<path d="M7.1,14.9c-1.3,0-2.3,1-2.3,2.3c0,1.3,1,2.3,2.3,2.3c1.3,0,2.3-1,2.3-2.3C9.5,16,8.4,14.9,7.1,14.9z M7.1,18.7
				c-0.8,0-1.4-0.6-1.4-1.4c0-0.8,0.6-1.4,1.4-1.4s1.4,0.6,1.4,1.4C8.5,18,7.9,18.7,7.1,18.7z"/>
			<path d="M13.2,20.5c-1.3,0-2.3,1-2.3,2.3c0,1.3,1,2.3,2.3,2.3c1.3,0,2.3-1,2.3-2.3C15.5,21.6,14.5,20.5,13.2,20.5z M13.2,24.3
				c-0.8,0-1.4-0.6-1.4-1.4c0-0.8,0.6-1.4,1.4-1.4s1.4,0.6,1.4,1.4C14.6,23.6,14,24.3,13.2,24.3z"/>
			<path d="M7.1,20.5c-1.3,0-2.3,1-2.3,2.3c0,1.3,1,2.3,2.3,2.3c1.3,0,2.3-1,2.3-2.3C9.5,21.6,8.4,20.5,7.1,20.5z M7.1,24.3
				c-0.8,0-1.4-0.6-1.4-1.4c0-0.8,0.6-1.4,1.4-1.4s1.4,0.6,1.4,1.4C8.5,23.6,7.9,24.3,7.1,24.3z"/>
			<path d="M21.1,20.5h-3.7c-0.3,0-0.5,0.2-0.5,0.5v4.7c0,0.3,0.2,0.5,0.5,0.5h3.7c0.3,0,0.5-0.2,0.5-0.5V21
				C21.6,20.7,21.4,20.5,21.1,20.5z M20.7,25.2h-2.8v-3.7h2.8V25.2z"/>
			<path d="M18.8,5.6h-0.9v0.9h0.9V5.6z"/>
			<path d="M20.7,5.6h-0.9v0.9h0.9V5.6z"/>
			<path d="M7.6,4.7V3.7H6.7v0.9H5.7v0.9h0.9v0.9h0.9V5.6h0.9V4.7H7.6z"/>
			<path d="M19.7,23.8h-0.5c-0.3,0-0.5,0.2-0.5,0.5s0.2,0.5,0.5,0.5h0.5c0.3,0,0.5-0.2,0.5-0.5S20,23.8,19.7,23.8z"/>
		</g>
	</g>
</g>
</svg>
