<?xml version="1.0" encoding="utf-8"?>
<!-- Generator: Adobe Illustrator 25.0.1, SVG Export Plug-In . SVG Version: 6.00 Build 0)  -->
<svg version="1.1" id="Layer_1" xmlns="http://www.w3.org/2000/svg" xmlns:xlink="http://www.w3.org/1999/xlink" x="0px" y="0px"
	 viewBox="0 0 46 40" style="enable-background:new 0 0 46 40;" xml:space="preserve">
<g>
	<circle fill="#E9F0F6" class="st0" cx="26.5" cy="20.5" r="19.5"/>
	<path d="M0.1,20.5c0.1,0.2,0.3,0.3,0.5,0.3h2.9v8.6c0,0.3,0.3,0.6,0.6,0.6h21.8c0.3,0,0.6-0.3,0.6-0.6v-8.6h2.9
		c0.2,0,0.4-0.1,0.5-0.3c0.1-0.2,0.1-0.4,0-0.6l-3.5-5.3c-0.1-0.2-0.3-0.3-0.5-0.3h-2.2c-0.3,0-0.6,0.3-0.6,0.6s0.3,0.6,0.6,0.6h1.9
		l2.7,4.1h-9.5l-2.7-4.1h2.3c0.3,0,0.6-0.3,0.6-0.6s-0.3-0.6-0.6-0.6c-0.7,0-13.6,0-14.3,0c-0.2,0-0.4,0.1-0.5,0.3l-3.5,5.3
		C0,20.1,0,20.4,0.1,20.5z M4.7,20.9h6.8c0.2,0,0.4-0.1,0.5-0.3l2.4-3.7v11.9H4.7V20.9z M18,20.6c0.1,0.2,0.3,0.3,0.5,0.3h6.8v8
		h-9.7V16.9L18,20.6z M4.4,15.6h9.5l-2.7,4.1H1.7L4.4,15.6z"/>
	<path d="M11.5,1.5C11,0.8,10.2,0,8.8,0C7,0,5.6,1.5,5.6,3.3c0,2,1.6,3.4,4.1,5.4c0.4,0.4,0.9,0.7,1.4,1.1c0.1,0.1,0.2,0.1,0.4,0.1
		c0.1,0,0.3,0,0.4-0.1c0.5-0.4,0.9-0.8,1.4-1.1c2.5-2,4.1-3.3,4.1-5.4C17.3,1.5,16,0,14.1,0C12.8,0,12,0.8,11.5,1.5z M16.2,3.3
		c0,1.5-1.5,2.7-3.7,4.5c-0.3,0.3-0.7,0.5-1,0.8c-0.3-0.3-0.7-0.6-1-0.8C8.3,6,6.8,4.8,6.8,3.3c0-1.2,0.9-2.2,2.1-2.2
		c1.5,0,2.1,1.7,2.1,1.8c0.1,0.3,0.3,0.4,0.6,0.4c0.3,0,0.5-0.2,0.6-0.4c0,0,0.5-1.8,2.1-1.8C15.3,1.2,16.2,2.1,16.2,3.3z"/>
	<path d="M22,11.7c0.1,0,0.3,0,0.4-0.1c0.3-0.3,0.6-0.5,0.9-0.8c1.6-1.4,2.8-2.4,2.8-3.9c0-1.4-1-2.5-2.3-2.5
		c-0.8,0-1.4,0.4-1.8,0.9c-0.4-0.5-0.9-0.9-1.8-0.9c-1.3,0-2.3,1.1-2.3,2.5c0,1.5,1.2,2.5,2.8,3.9c0.3,0.2,0.6,0.5,0.9,0.8
		C21.8,11.7,21.9,11.7,22,11.7z M19.1,6.9c0-0.6,0.4-1.3,1.2-1.3c0.9,0,1.2,1.1,1.2,1.1c0.1,0.3,0.3,0.4,0.6,0.4
		c0.3,0,0.5-0.2,0.6-0.4c0,0,0.3-1.1,1.2-1.1c0.8,0,1.2,0.7,1.2,1.3c0,1-0.9,1.7-2.4,3c-0.2,0.1-0.4,0.3-0.5,0.5
		c-0.2-0.2-0.4-0.3-0.5-0.5C20,8.6,19.1,7.9,19.1,6.9z"/>
	<path d="M21,15.6c0.3,0,0.6-0.3,0.6-0.6s-0.3-0.6-0.6-0.6s-0.6,0.3-0.6,0.6S20.7,15.6,21,15.6z"/>
</g>
</svg>
