<?xml version="1.0" encoding="utf-8"?>
<!-- Generator: Adobe Illustrator 25.0.1, SVG Export Plug-In . SVG Version: 6.00 Build 0)  -->
<svg version="1.1" id="Layer_1" xmlns="http://www.w3.org/2000/svg" xmlns:xlink="http://www.w3.org/1999/xlink" x="0px" y="0px"
	 viewBox="0 0 46 40" style="enable-background:new 0 0 46 40;" xml:space="preserve">
<g>
	<circle fill="#E9F0F6" cx="26.5" cy="20.5" r="19.5"/>
	<path d="M4.8,7.9h3.7C8.8,7.9,9,7.7,9,7.5V6.1H8.1V7H5.3V4.2h1.4V3.3H4.8c-0.3,0-0.5,0.2-0.5,0.5v3.7C4.3,7.7,4.5,7.9,4.8,7.9z"/>
	<path d="M6.7,5.4L6.1,4.8L5.4,5.5l0.9,0.9c0.1,0.1,0.2,0.1,0.3,0.1s0.2,0,0.3-0.1l2.8-2.8L9.1,2.9L6.7,5.4z"/>
	<path d="M8.1,13.1H5.3v-2.8h1.4V9.3H4.8c-0.3,0-0.5,0.2-0.5,0.5v3.7c0,0.3,0.2,0.5,0.5,0.5h3.7C8.8,14,9,13.8,9,13.5v-1.4H8.1V13.1
		z"/>
	<path d="M6.7,11.5l-0.6-0.6l-0.7,0.7l0.9,0.9c0.1,0.1,0.2,0.1,0.3,0.1s0.2,0,0.3-0.1l2.8-2.8L9.1,9L6.7,11.5z"/>
	<path d="M8.5,15.4H4.8c-0.3,0-0.5,0.2-0.5,0.5v3.7c0,0.3,0.2,0.5,0.5,0.5h3.7c0.3,0,0.5-0.2,0.5-0.5v-3.7C9,15.6,8.8,15.4,8.5,15.4
		z M8.1,19.1H5.3v-2.8h2.8V19.1z"/>
	<path d="M8.5,21.5H4.8c-0.3,0-0.5,0.2-0.5,0.5v3.7c0,0.3,0.2,0.5,0.5,0.5h3.7c0.3,0,0.5-0.2,0.5-0.5v-3.7C9,21.7,8.8,21.5,8.5,21.5
		z M8.1,25.2H5.3v-2.8h2.8V25.2z"/>
	<path d="M28,1.5c-0.2-0.2-0.5-0.2-0.7,0l-2.9,2.9l-4.3-4.3C20,0,19.9,0,19.7,0H2.5C2.2,0,2,0.2,2,0.5v27.1C2,27.8,2.2,28,2.5,28
		h21.9c0.3,0,0.5-0.2,0.5-0.5V9.1l5-5c0.2-0.2,0.2-0.5,0-0.7L28,1.5z M23.9,27.1h-21V0.9h16.6l3.7,3.7h-3.1V2.3h-0.9v2.8
		c0,0.3,0.2,0.5,0.5,0.5h3.5L12.4,16.5c-0.1,0.1-0.1,0.1-0.1,0.2l-0.9,2.8c-0.1,0.2,0,0.4,0.1,0.5c0.1,0.1,0.2,0.1,0.3,0.1
		c0,0,0.1,0,0.1,0l2.8-0.9c0.1,0,0.1-0.1,0.2-0.1l9-9V27.1z M12.9,17.7l0.8,0.8l-1.2,0.4L12.9,17.7z M14.6,18l-1.2-1.2L27.7,2.5
		l1.2,1.2L14.6,18z"/>
	<path d="M22.1,25.2H23v0.9h-0.9V25.2z"/>
	<path d="M20.2,25.2h0.9v0.9h-0.9V25.2z"/>
	<path d="M18.3,25.2h0.9v0.9h-0.9V25.2z"/>
</g>
</svg>
