<svg xmlns="http://www.w3.org/2000/svg" width="66" height="62"><path scale="0.3" data-name="visa application in process" d="M61.424 46.425a17.807 17.807 0 011.531 6.783 1.1 1.1 0 01.962 1.182v1.41a1.126 1.126 0 01-1.225 1.2h-21.52a1.126 1.126 0 01-1.225-1.2v-1.41a1.1 1.1 0 01.963-1.182 17.775 17.775 0 011.53-6.782 11.933 11.933 0 013.873-4.93 11.922 11.922 0 01-3.873-4.929 17.778 17.778 0 01-1.53-6.783 1.1 1.1 0 01-.963-1.182V27.2a1.126 1.126 0 011.225-1.2h21.52a1.126 1.126 0 011.224 1.2v1.4a1.1 1.1 0 01-.962 1.182 17.8 17.8 0 01-1.531 6.783 11.943 11.943 0 01-3.872 4.935 11.947 11.947 0 013.873 4.925zM59.068 29.8H44.8a12.229 12.229 0 002.143 6.836c1.407 1.986 3.04 2.951 4.993 2.951s3.586-.965 4.993-2.951a12.224 12.224 0 002.139-6.836zm-2.142 16.552c-1.407-1.985-3.04-2.95-4.993-2.95s-3.587.965-4.993 2.95a12.228 12.228 0 00-2.14 6.836h14.268a12.23 12.23 0 00-2.142-6.836zM42.2 17.821l-6.468 4.058.283 3c.024 1.527.059 4.751-.015 7.121-.059 1.9-.048 2.941-.029 3.483l-.113 1.641 4.984 3.165a35.77 35.77 0 00-1.647 3.594l-3.975-2.625-2.252 6.664a19.184 19.184 0 005.985-3.422 36.305 36.305 0 00-1.653 5.737 29.683 29.683 0 01-3.913 1.625 19.323 19.323 0 01-9.7.886 23.134 23.134 0 01-15.91-9.179 22.3 22.3 0 01-4.193-18.933C5.557 15.741 11.1 9.927 19.774 7.071a21.559 21.559 0 0111.356-.592A23.555 23.555 0 0148.837 22H44.6a18.331 18.331 0 00-2.4-4.179zm-20.092 23.9a18.328 18.328 0 002.416 5.716c1.441 2.053 2.651 2.128 3.931.011a34.76 34.76 0 002.273-5.087 18.182 18.182 0 00.616-2.426 20.076 20.076 0 00-9.645 0c.145.637.25 1.218.409 1.783zm-2.032 6.162l-2.253-6.633-4.286 2.859a18.743 18.743 0 006.539 3.772zm-9.223-6.75l6.341-3.993-.425-6.126H7.024a19.1 19.1 0 003.829 10.117zm-.017-23.318a18.667 18.667 0 00-3.674 9.166h9.662l.507-5.087zm2.719-2.938l4.415 2.883 2.608-6.893a19.014 19.014 0 00-7.023 4.01zm14.621-2.966c-1.161-1.473-2.222-1.456-3.338.027a18.451 18.451 0 00-2.957 7.1 19.284 19.284 0 009.3.018 17.751 17.751 0 00-3.005-7.145zM31.9 22.922a25.6 25.6 0 01-10.769.028l-.352 4.006h11.52zM20.7 31l.326 5.038a25.44 25.44 0 0111 0L32.339 31H20.7zm11.79-20.086l2.592 6.872 4.436-2.919a18.336 18.336 0 00-7.027-3.953z" fill="#e89c46" fill-rule="evenodd"/></svg>