<svg xmlns="http://www.w3.org/2000/svg" width="66" height="62"><path scale="0.3" data-name="visa confirmed" d="M59.467 41.072l-16.356 16.5a1.219 1.219 0 01-1.958-.116l-8.638-8.716a1.2 1.2 0 010-1.975l2.649-2.673a1.353 1.353 0 01.92-.457h-.023c.025 0 .049-.018.073-.018a1.174 1.174 0 01.369.086 1.09 1.09 0 00-.237-.037 1.17 1.17 0 01.3.069c-.019-.008-.038-.025-.057-.032.019.007.038.024.057.032a1.719 1.719 0 01.183.1 1.824 1.824 0 01.224.125 1.807 1.807 0 00-.223-.125 2.087 2.087 0 01.378.257l5.068 5.229L54.975 36.54a1.177 1.177 0 011.958 0l2.534 2.56a1.2 1.2 0 010 1.972zm-17.956 7.521l-2.8-2.9 2.8 2.9zM52.4 33.478c-.1.1-.219.178-.318.285l-9.832 9.843-.18-.186c.139-.116.279-.224.417-.346L40.4 41.7l-.392-.4-.1-.1-.1-.094a5.438 5.438 0 00-3.673-1.485 5.05 5.05 0 00-2.034.434c.079-.367.151-.74.243-1.115a20.076 20.076 0 00-9.645 0c.146.644.25 1.224.409 1.79a18.328 18.328 0 002.416 5.716 7.154 7.154 0 00.561.707c-.017.143-.053.283-.057.428a5.337 5.337 0 001.672 3.963l.425.429a23.454 23.454 0 01-3.44-.225 23.134 23.134 0 01-15.91-9.179 22.3 22.3 0 01-4.191-18.933C8.557 14.741 14.1 8.927 22.774 6.071a21.559 21.559 0 0111.356-.592 23.273 23.273 0 0118.5 26.994c-.064.347-.158.667-.23 1.005zm-29.323 13.4l-2.253-6.633-4.286 2.859a18.743 18.743 0 006.538 3.777zm-9.223-6.75l6.341-3.993-.425-6.126h-9.746a19.106 19.106 0 003.829 10.122zm-3.691-14.15h9.662l.507-5.087-6.495-4.079a18.668 18.668 0 00-3.675 9.169zm6.393-12.1l4.414 2.882 2.608-6.893a19.014 19.014 0 00-7.023 4.01zm14.621-2.966c-1.161-1.473-2.222-1.455-3.338.027a18.452 18.452 0 00-2.957 7.1 19.284 19.284 0 009.3.018 17.751 17.751 0 00-3.006-7.146zm3.723 11.01a25.6 25.6 0 01-10.769.028l-.352 4.006H35.3zM23.7 30l.326 5.038a25.44 25.44 0 0111 0L35.339 30H23.7zM35.491 9.914l2.592 6.872 4.436-2.919a18.336 18.336 0 00-7.028-3.953zm9.71 6.907l-6.468 4.058.479 5.082h9.712a19.024 19.024 0 00-3.724-9.14zm-5.923 13.185l-.42 6.117 6.336 4.024a19.1 19.1 0 003.821-10.141h-9.737z" fill="#3e9b83" fill-rule="evenodd"/></svg>