<svg xmlns="http://www.w3.org/2000/svg" width="66" height="62"><path scale="0.3" data-name="visa appointment set" d="M62.979 55.9a3.2 3.2 0 01-2.308.928H43.226a3.194 3.194 0 01-2.308-.928 3.056 3.056 0 01-.954-2.263v-20.81a3.055 3.055 0 01.955-2.263 3.194 3.194 0 012.308-.929h4.5a3.963 3.963 0 011.243-2.559 4.225 4.225 0 015.949 0 3.963 3.963 0 011.243 2.559h4.5a3.2 3.2 0 012.308.929 3.057 3.057 0 01.954 2.263v20.81a3.058 3.058 0 01-.945 2.263zm-9.931-25.911a1 1 0 00-.318-.752 1.132 1.132 0 00-1.562 0 1.049 1.049 0 000 1.5 1.124 1.124 0 001.563 0 1 1 0 00.317-.748zm3.989 6.029H46.861a.986.986 0 01-1.082-1.063v-1.774h-2.19l-.008 20.1h16.727a.171.171 0 00.049-.005l-.041-20.1h-2.2v1.774a.985.985 0 01-1.079 1.069zm-11.856-11.33a18.4 18.4 0 00-2.98-5.866l-6.468 4.058c.356 3.775 2.02 11.882-2.765 26.042a19.5 19.5 0 003.021-1.373v4.3c-.837.366-1.7.709-2.6 1.011a19.323 19.323 0 01-9.7.886 23.134 23.134 0 01-15.91-9.179 22.3 22.3 0 01-4.195-18.931c1.973-8.895 7.516-14.709 16.19-17.565a21.559 21.559 0 0111.356-.592 23.541 23.541 0 0117.3 14.5 21.832 21.832 0 00-3.249 2.709zm-23.073 18.03a18.328 18.328 0 002.416 5.716c1.441 2.053 2.651 2.128 3.931.011a34.76 34.76 0 002.273-5.087 18.182 18.182 0 00.616-2.426 20.076 20.076 0 00-9.645 0c.145.64.25 1.221.409 1.786zm-2.032 6.162l-2.253-6.633-4.286 2.859a18.743 18.743 0 006.539 3.775zm-9.223-6.75l6.341-3.993-.425-6.126H7.024a19.1 19.1 0 003.829 10.12zm-.017-23.315a18.667 18.667 0 00-3.674 9.166h9.662l.507-5.087zm2.719-2.938l4.415 2.883 2.608-6.893a19.014 19.014 0 00-7.023 4.01zm14.621-2.966c-1.161-1.473-2.222-1.456-3.338.027a18.451 18.451 0 00-2.957 7.1 19.284 19.284 0 009.3.018 17.751 17.751 0 00-3.005-7.145zM31.9 23.922a25.6 25.6 0 01-10.769.028l-.352 4.006h11.52zM20.7 32l.326 5.038a25.44 25.44 0 0111 0L32.339 32H20.7zm11.79-20.086l2.592 6.872 4.436-2.919a18.336 18.336 0 00-7.027-3.953z" fill="#e89c46" fill-rule="evenodd"/></svg>