<?xml version="1.0" encoding="utf-8"?>
<!-- Generator: Adobe Illustrator 25.0.1, SVG Export Plug-In . SVG Version: 6.00 Build 0)  -->
<svg version="1.1" id="Layer_1" xmlns="http://www.w3.org/2000/svg" xmlns:xlink="http://www.w3.org/1999/xlink" x="0px" y="0px"
	 viewBox="0 0 46 40" style="enable-background:new 0 0 46 40;" xml:space="preserve">
<g>
	<circle fill="#E9F0F6" cx="26.5" cy="20.5" r="19.5"/>
	<path d="M29.6,16.7c0.2,0,0.4-0.2,0.4-0.4v-1.1c0-1.5-1.3-2.8-2.8-2.8h-0.3c0.7-0.6,1.1-1.5,1.1-2.5c0-1.9-1.5-3.4-3.4-3.4
		c-1.9,0-3.4,1.5-3.4,3.4c0,1,0.4,1.9,1.1,2.5H22c-1.1,0-2,0.6-2.5,1.5c-0.1,0-0.1,0-0.2-0.1L17,13.2v-1.2c1.1-0.7,1.9-1.9,1.9-3.2
		h0.5c0.8,0,1.4-0.6,1.4-1.4c0-0.7-0.5-1.2-1.1-1.3V4.8c0-2.6-2.1-4.8-4.8-4.8s-4.8,2.1-4.8,4.8V6C9.6,6.2,9.2,6.7,9.2,7.3
		c0,0.8,0.6,1.4,1.4,1.4h0.5c0,1.4,0.8,2.6,1.9,3.2v1.2l-2.3,0.6c-0.1,0-0.1,0-0.2,0.1C10,13,9.1,12.4,8,12.4H7.7
		c0.7-0.6,1.1-1.5,1.1-2.5c0-1.9-1.5-3.4-3.4-3.4S2,8,2,9.9c0,1,0.4,1.9,1.1,2.5H2.8c-1.5,0-2.8,1.3-2.8,2.8v1.1
		c0,0.2,0.2,0.4,0.4,0.4s0.4-0.2,0.4-0.4v-1.1c0-1.1,0.9-1.9,1.9-1.9H8c0.7,0,1.3,0.4,1.7,1c-1.5,0.8-2.4,2.3-2.4,4v2.4H0.9v-2.3
		c0-0.2-0.2-0.4-0.4-0.4S0,18.1,0,18.3V21c0,0.2,0.2,0.4,0.4,0.4h9.9C10,22,9.7,22.7,9.6,23.3c0,0.2,0.1,0.5,0.3,0.5
		c0.2,0,0.5-0.1,0.5-0.3c0.4-2.2,2.4-3.7,4.6-3.7c2.6,0,4.7,2.1,4.7,4.7c0,2.6-2.1,4.7-4.7,4.7c-2.2,0-4.1-1.6-4.6-3.7
		c0-0.2-0.3-0.4-0.5-0.3c-0.2,0-0.4,0.3-0.3,0.5c0.5,2.6,2.8,4.4,5.4,4.4c3.1,0,5.5-2.5,5.5-5.5c0-1.1-0.3-2.1-0.9-3h9.9
		c0.2,0,0.4-0.2,0.4-0.4v-2.7c0-0.2-0.2-0.4-0.4-0.4c-0.2,0-0.4,0.2-0.4,0.4v2.3h-6.4v-2.4c0-1.7-0.9-3.2-2.4-4c0.3-0.6,1-1,1.7-1
		h5.2c1.1,0,1.9,0.9,1.9,1.9v1.1C29.1,16.5,29.3,16.7,29.6,16.7z M2.9,9.9c0-1.4,1.1-2.5,2.5-2.5s2.5,1.1,2.5,2.5
		c0,1.4-1.1,2.5-2.5,2.5h0C4,12.4,2.9,11.2,2.9,9.9z M14.1,15.3l-0.4,0.4c-0.2,0.2-0.5,0.2-0.7,0.1c-0.2-0.1-0.4-0.3-0.5-0.5
		l-0.3-0.9l0.9-0.2C13.3,14.6,13.6,15,14.1,15.3z M16.9,14.1l0.9,0.2l-0.3,0.9c-0.1,0.2-0.2,0.4-0.5,0.5c-0.2,0.1-0.5,0-0.7-0.1
		l-0.4-0.4C16.4,15,16.7,14.6,16.9,14.1z M19.9,7.3c0,0.3-0.2,0.5-0.5,0.5h-0.5v-1h0.4h0.1C19.7,6.8,19.9,7,19.9,7.3z M11.1,4.8
		c0-2.1,1.7-3.9,3.9-3.9s3.9,1.7,3.9,3.9v1.2h-1.5c-0.4,0-0.7-0.3-0.7-0.7c0-0.2-0.2-0.4-0.4-0.4c-0.2,0-0.4,0.2-0.4,0.4
		c0,0.4-0.3,0.7-0.7,0.7h-3.9V4.8z M10.1,7.3c0-0.3,0.2-0.5,0.5-0.5h0.5v1h-0.5C10.3,7.8,10.1,7.6,10.1,7.3z M12,8.6V6.8h3
		c0.5,0,0.9-0.2,1.2-0.5c0.3,0.3,0.7,0.5,1.2,0.5H18v1.8c0,1.7-1.3,3-3,3S12,10.3,12,8.6z M15,12.5c0.4,0,0.8-0.1,1.1-0.2v1.2
		c0,0.6-0.5,1.1-1.1,1.1s-1.1-0.5-1.1-1.1v-1.2C14.2,12.4,14.6,12.5,15,12.5z M21.8,18.2v2.4H19c-1-1-2.4-1.7-4-1.7
		c-1.5,0-3,0.6-4,1.7H8.2v-2.4c0-1.7,1.1-3.1,2.7-3.6l0.4-0.1l0.3,0.9c0.1,0.5,0.6,1,1.1,1.1c0.2,0.1,0.3,0.1,0.5,0.1
		c0.4,0,0.7-0.1,1-0.4l0.8-0.7l0.8,0.7c0.3,0.2,0.7,0.4,1,0.4c0.2,0,0.3,0,0.5-0.1c0.5-0.2,0.9-0.6,1.1-1.1l0.3-0.9l0.4,0.1
		C20.7,15.1,21.8,16.6,21.8,18.2z M22.1,9.9c0-1.4,1.1-2.5,2.5-2.5c1.4,0,2.5,1.1,2.5,2.5c0,1.4-1.1,2.5-2.5,2.5h0
		C23.2,12.4,22.1,11.2,22.1,9.9z"/>
	<path d="M14.4,27.1c0.4,0,0.8-0.2,1-0.4l2.3-2.3c0.6-0.6,0.6-1.5,0-2.1c-0.6-0.6-1.5-0.6-2.1,0l-1.2,1.2c-0.6-0.6-1.5-0.6-2.1,0
		c-0.6,0.6-0.6,1.5,0,2.1l1,1C13.6,26.9,14,27.1,14.4,27.1z M12.9,24.1C13,24,13.2,24,13.4,24s0.3,0.1,0.4,0.2l0.3,0.3
		c0.1,0.1,0.2,0.1,0.3,0.1s0.2,0,0.3-0.1l1.5-1.5c0.2-0.2,0.6-0.2,0.8,0c0.2,0.2,0.2,0.6,0,0.8L14.8,26c-0.1,0.1-0.3,0.2-0.4,0.2
		c-0.2,0-0.3-0.1-0.4-0.2l-1-1C12.7,24.7,12.7,24.4,12.9,24.1z"/>
</g>
</svg>
