<svg xmlns="http://www.w3.org/2000/svg" width="66" height="62"><path scale="0.3" data-name="work mermit issued" d="M65.467 40.072l-16.356 16.5a1.219 1.219 0 01-1.958-.116l-8.638-8.715a1.2 1.2 0 010-1.975l2.649-2.673a1.264 1.264 0 011.958 0l5.068 5.229L60.975 35.54a1.177 1.177 0 011.958 0l2.534 2.56a1.2 1.2 0 010 1.972zm-16.317.778v-7.189c-.431.179-.783.339-1.15.474q-8.945 3.223-17.893 6.434a9 9 0 01-6.23-.014q-7.2-2.583-14.407-5.171c-1.527-.549-3.048-1.116-4.578-1.678a1.182 1.182 0 00-.028.178c0 4-.015 8 .022 12a4.68 4.68 0 00.407 1.84c.818 1.8 2.353 2.36 4.2 2.356q9.347-.018 18.695 0 3.374 0 6.749-.005L39.25 55H8.166a1.748 1.748 0 00-.323-.1 8.809 8.809 0 01-7.806-8.6C-.031 41.12.011 35.944.01 30.77q0-6.986.008-13.972a2.4 2.4 0 011.7-2.5 4.915 4.915 0 011.225-.137q5.662-.015 11.324-.007h.633v-.634a7.274 7.274 0 017.383-7.494c3.243-.045 6.488-.03 9.731.012a7.129 7.129 0 016.837 5.525 24.674 24.674 0 01.338 2.591h11.979a2.437 2.437 0 012.563 1.418 4.692 4.692 0 01.254 1.684c.021 2.945 0 5.891 0 8.836.005 3.64.015 6.275.015 9.908zM31.415 10.924q-4.482 0-8.964.006a2.517 2.517 0 00-2.637 3.18h14.392c.187-2.102-.774-3.184-2.791-3.186zm17.714 8.8v-.616H4.956v6.124A4.059 4.059 0 008 29.571q8.78 3.156 17.557 6.323a4.157 4.157 0 002.929.012q8.944-3.223 17.885-6.451a3.921 3.921 0 002.756-4c.011-1.905.003-3.816.002-5.726z" fill="#cf3e3e" fill-rule="evenodd"/></svg>