<svg xmlns="http://www.w3.org/2000/svg" width="66" height="62"><path scale="0.3" data-name="work mermit started" d="M62.424 48.425a17.807 17.807 0 011.531 6.783 1.1 1.1 0 01.962 1.182v1.41a1.126 1.126 0 01-1.225 1.2h-21.52a1.126 1.126 0 01-1.225-1.2v-1.41a1.1 1.1 0 01.963-1.182 17.775 17.775 0 011.53-6.782 11.934 11.934 0 013.873-4.93 11.921 11.921 0 01-3.873-4.929 17.778 17.778 0 01-1.53-6.783 1.1 1.1 0 01-.963-1.182V29.2a1.126 1.126 0 011.225-1.2h21.52a1.126 1.126 0 011.225 1.2v1.4a1.1 1.1 0 01-.962 1.182 17.8 17.8 0 01-1.531 6.783 11.942 11.942 0 01-3.873 4.935 11.948 11.948 0 013.873 4.925zM52.932 45.4c-1.953 0-3.587.965-4.993 2.95a12.228 12.228 0 00-2.139 6.838h14.268a12.23 12.23 0 00-2.143-6.836c-1.406-1.986-3.039-2.952-4.993-2.952zm0-3.811c1.953 0 3.586-.965 4.993-2.951a12.224 12.224 0 002.143-6.838H45.8a12.229 12.229 0 002.143 6.836c1.403 1.989 3.036 2.955 4.989 2.955zM50.13 23.46c.008-1.91 0-3.82 0-5.731v-.621H5.956v6.124A4.059 4.059 0 009 27.571q8.78 3.156 17.557 6.323a4.157 4.157 0 002.929.012l7.58-2.734 1.837 4.594-7.8 2.8a9 9 0 01-6.23-.014q-7.2-2.583-14.407-5.171c-1.527-.549-3.048-1.116-4.578-1.677a1.184 1.184 0 00-.028.178c0 4-.015 8 .022 12a4.68 4.68 0 00.407 1.84c.818 1.8 2.353 2.36 4.2 2.356q9.347-.018 18.695 0 4.8 0 9.6-.007L38 52v1H9.166a1.748 1.748 0 00-.323-.1 8.809 8.809 0 01-7.806-8.6c-.068-5.18-.026-10.356-.027-15.53q0-6.986.008-13.972a2.4 2.4 0 011.7-2.5 4.915 4.915 0 011.225-.137q5.662-.015 11.324-.007h.633v-.634a7.274 7.274 0 017.383-7.494c3.243-.045 6.488-.03 9.731.012a7.129 7.129 0 016.837 5.525 24.672 24.672 0 01.338 2.591h11.979a2.437 2.437 0 012.563 1.418 4.692 4.692 0 01.254 1.684c.021 2.913.005 5.827 0 8.74H50.1c.012-.172.029-.349.03-.536zM32.415 8.924q-4.482 0-8.964.006a2.517 2.517 0 00-2.637 3.18h14.392c.187-2.102-.774-3.184-2.791-3.186z" fill="#e89c46" fill-rule="evenodd"/></svg>